<svg width="35" height="42" viewBox="0 0 35 42" fill="none" xmlns="http://www.w3.org/2000/svg">
<path d="M4.88694 38.6663C6.71092 40.2133 8.87105 41.3007 11.1903 41.8394C11.4122 41.9129 11.5615 41.6189 11.4122 41.4719C6.44462 36.6734 9.17419 31.4802 11.1903 29.1387C12.6276 27.4671 14.6748 24.714 14.5255 21.0222C14.5255 20.6526 14.8988 20.3565 15.1934 20.5791C18.0121 22.0554 19.939 25.3041 20.4575 27.9606C21.2747 27.15 21.5713 25.8942 21.5713 24.7875C21.5713 24.4179 22.0152 24.1218 22.3865 24.4179C25.0559 26.8539 29.6522 35.1215 22.2371 41.6168C22.0899 41.7659 22.2371 42.062 22.3865 41.9885C24.6349 41.3917 26.7493 40.3637 28.6151 38.9603C40.7012 29.5104 32.8402 12.7525 27.7232 7.21695C27.0574 6.55125 25.871 6.99435 25.871 7.95404C25.7964 9.94903 25.2032 12.1624 23.6476 13.6387C22.4611 8.61974 18.5078 2.91828 12.8724 0.112706C12.1319 -0.256891 11.2421 0.333204 11.3168 1.1459C11.462 8.01284 7.03782 12.385 3.18199 18.0697C-0.229974 23.1621 -2.45346 32.5385 4.88694 38.6663Z" fill="white"/>
</svg>
