<svg width="39" height="39" viewBox="0 0 39 39" fill="none" xmlns="http://www.w3.org/2000/svg">
<path d="M22.5175 11.1703L21.8102 11.6419C21.3386 11.8777 21.1028 12.3493 20.867 12.8208C20.867 13.0566 20.867 13.0566 20.867 13.2924C20.6312 14.4713 21.5744 15.8861 22.7533 15.8861L27.9406 16.5934C28.1764 16.5934 28.1764 16.5934 28.4122 16.5934C28.8837 16.5934 29.3553 16.3576 29.8269 16.1218C30.2985 15.6503 30.77 15.1787 30.77 14.4713L31.4774 9.28406C31.7132 8.34092 31.2416 7.39778 30.2985 6.92621C29.5911 6.45463 28.4122 6.45463 27.7048 6.92621L26.2901 7.86935L20.3955 0.795775C19.9239 0.0884181 18.9807 -0.147366 18.2734 0.0884199C17.566 0.0884199 16.8587 0.795778 16.3871 1.50314L12.3787 10.463C11.9072 11.6419 12.3787 13.0566 13.5577 13.5282C14.7366 13.9998 16.1513 13.5282 16.6229 12.3493L19.2165 7.16199L22.5175 11.1703Z" fill="white"/>
<path d="M33.8352 21.3091C33.3637 20.1302 31.949 19.6586 30.77 20.1302C29.5911 20.6018 29.1195 22.0165 29.5911 23.1954L32.8921 30.0332H26.9975V28.8543V28.6185C26.9975 28.3827 26.9975 28.1469 26.7617 27.9111C26.7617 27.6753 26.5259 27.4396 26.2901 27.2038C25.347 26.2606 23.9323 26.2606 22.9891 27.2038L19.4523 30.7406C18.5092 31.6837 18.5092 33.0984 19.4523 34.0416L22.7533 37.5783C23.2249 38.0499 23.9323 38.2857 24.4038 38.2857C24.6396 38.2857 24.8754 38.2857 25.347 38.0499C26.2901 37.8141 26.7617 36.871 26.7617 35.9278V34.5131L36.4289 34.7489C37.372 34.7489 38.0794 34.2773 38.551 33.57C39.0225 32.8626 39.0225 31.9195 38.7868 31.2121L33.8352 21.3091Z" fill="white"/>
<path d="M12.3788 30.5048L6.24832 30.269L8.60618 26.0248L9.31354 26.4964C9.54932 26.7322 10.0209 26.7322 10.2567 26.968C10.4925 26.968 10.7283 26.968 10.964 26.968C12.143 26.7322 13.0861 25.5533 12.8503 24.1386L12.3788 19.4228C12.3788 18.7155 11.9072 18.2439 11.4356 18.0081C10.964 17.5366 10.2567 17.5366 9.78511 17.5366L4.59782 18.4797C3.65468 18.7155 2.94732 19.4228 2.71154 20.366C2.47575 21.3091 2.94732 22.2523 3.65468 22.7238L5.06939 23.667L0.353679 31.6837C-0.117893 32.3911 -0.117893 33.3342 0.353679 34.0416C0.82525 34.7489 1.53261 35.2205 2.23997 35.2205L12.3788 35.4563C13.5577 35.4563 14.7366 34.5131 14.7366 33.0984C14.7366 31.6837 13.7935 30.5048 12.3788 30.5048Z" fill="white"/>
</svg>
