<svg width="43" height="43" viewBox="0 0 43 43" fill="none" xmlns="http://www.w3.org/2000/svg">
<g clip-path="url(#clip0_30_348)">
<path d="M38.3365 3.47794C39.2968 3.47794 40.0755 2.69918 40.0755 1.73892C40.0755 0.778646 39.2968 0 38.3365 0H34.3452H21.9603H8.65489H7.62183H4.66359C3.70332 0 2.92456 0.778759 2.92456 1.73903C2.92456 2.6993 3.70332 3.47806 4.66359 3.47806H6.08653V13.4374H4.66359C3.70332 13.4374 2.92456 14.2162 2.92456 15.1765C2.92456 16.1367 3.70332 16.9153 4.66359 16.9153H6.08653V26.8746H4.66359C3.70332 26.8746 2.92456 27.6534 2.92456 28.6136C2.92456 29.5739 3.70332 30.3527 4.66359 30.3527H6.08653V39.5222H4.66359C3.70332 39.5222 2.92456 40.3009 2.92456 41.2612C2.92456 42.2215 3.70332 43.0002 4.66359 43.0002H38.3365C39.2968 43.0002 40.0755 42.2215 40.0755 41.2612C40.0755 40.3009 39.2968 39.5222 38.3365 39.5222H36.9136V30.3527H38.3365C39.2968 30.3527 40.0755 29.5739 40.0755 28.6136C40.0755 27.6534 39.2968 26.8746 38.3365 26.8746H36.9136V16.9163H38.3365C39.2968 16.9163 40.0755 16.1375 40.0755 15.1772C40.0755 14.217 39.2968 13.4382 38.3365 13.4382H36.9136V3.47794H38.3365ZM21.4996 37.6872C3.31071 37.6872 13.9741 17.1521 19.1643 8.65626C20.5181 6.44083 21.4996 5.04192 21.4996 5.04192C21.4996 5.04192 21.6692 5.28432 21.9603 5.71831C25.0807 10.3768 42.4761 37.6872 21.4996 37.6872Z" fill="white"/>
<path d="M24.4256 34.7502C28.2528 32.9836 29.1486 28.8624 28.2131 25.0535C27.7008 22.9662 24.4854 23.8518 24.9978 25.9401C25.6032 28.4053 25.2098 30.7332 22.7427 31.8713C20.7918 32.7716 22.4875 35.645 24.4256 34.7502Z" fill="white"/>
</g>
<defs>
<clipPath id="clip0_30_348">
<rect width="43" height="43" fill="white"/>
</clipPath>
</defs>
</svg>
