<svg width="49" height="52" viewBox="0 0 49 52" fill="none" xmlns="http://www.w3.org/2000/svg">
<path d="M24.1635 51.7528C23.0764 51.7525 21.9907 51.6772 20.914 51.5274C18.871 51.2439 16.8715 50.7059 14.9622 49.9258C10.9849 48.2914 7.51801 45.6214 4.92195 42.1934C3.60445 40.472 2.52795 38.5789 1.72222 36.5665C0.174114 32.6838 -0.342687 28.4664 0.222087 24.3247C0.786861 20.1831 2.41398 16.2581 4.94516 12.9316C6.26231 11.1989 7.80956 9.65386 9.54416 8.33921C10.2668 7.82929 11.159 7.61956 12.0331 7.75416C12.9072 7.88876 13.695 8.3572 14.2307 9.06089C14.7664 9.76458 15.0083 10.6486 14.9054 11.527C14.8025 12.4054 14.3628 13.2097 13.679 13.7705C12.4378 14.7093 11.3302 15.8125 10.3864 17.0498C9.47213 18.2533 8.71656 19.5694 8.13827 20.9657C7.5718 22.3384 7.18399 23.7782 6.98437 25.2497C6.57511 28.2261 6.94764 31.2578 8.06532 34.0465C8.64179 35.4838 9.41151 36.8359 10.3532 38.0653C11.2953 39.3098 12.4018 40.4208 13.6425 41.3678C14.8419 42.2819 16.1549 43.0364 17.5485 43.6126C18.9278 44.1779 20.3726 44.5678 21.8491 44.7731C23.3137 44.976 24.7987 44.9849 26.2657 44.7996C27.7668 44.6068 29.2374 44.2247 30.6425 43.6623C33.5396 42.4897 36.0706 40.5643 37.9737 38.0852C39.7954 35.7027 40.9614 32.8848 41.3558 29.9117C41.5573 28.4427 41.5685 26.9538 41.389 25.4818C41.1989 23.9824 40.8166 22.5136 40.2517 21.1116C39.6707 19.6628 38.8954 18.2997 37.9472 17.0597C37.0109 15.8226 35.9098 14.7193 34.6745 13.7804C34.2969 13.5181 33.9762 13.1822 33.7315 12.7929C33.4869 12.4036 33.3234 11.9689 33.2508 11.5148C33.1782 11.0608 33.198 10.5968 33.3091 10.1506C33.4202 9.70444 33.6202 9.28529 33.8972 8.91829C34.1742 8.55128 34.5224 8.24399 34.921 8.01482C35.3196 7.78566 35.7604 7.63934 36.217 7.58465C36.6735 7.52996 37.1364 7.56801 37.5778 7.69653C38.0193 7.82505 38.4303 8.04139 38.7861 8.33258C40.5184 9.64784 42.0624 11.1941 43.3752 12.9283C44.6984 14.6596 45.7804 16.5625 46.5915 18.585C47.3702 20.5293 47.8973 22.5651 48.1598 24.6429C48.8027 29.932 47.6815 35.2854 44.9703 39.872C42.2591 44.4586 38.1095 48.0219 33.1659 50.0087C31.2227 50.7825 29.1894 51.3073 27.1145 51.5705C26.1356 51.6933 25.1501 51.752 24.1635 51.7528ZM24.1701 26.9275C23.2649 26.9275 22.3967 26.5682 21.7563 25.9284C21.1159 25.2886 20.7557 24.4208 20.7548 23.5156V3.41526C20.7548 2.50948 21.1147 1.64079 21.7552 1.00031C22.3956 0.359822 23.2643 0 24.1701 0C25.0759 0 25.9446 0.359822 26.5851 1.00031C27.2256 1.64079 27.5854 2.50948 27.5854 3.41526V23.5156C27.5854 24.4214 27.2256 25.29 26.5851 25.9305C25.9446 26.571 25.0759 26.9308 24.1701 26.9308V26.9275Z" fill="white"/>
</svg>
